<?xml version="1.0" encoding="UTF-8" standalone="no"?>
<!-- Created with Inkscape (http://www.inkscape.org/) -->

<svg
   xmlns:dc="http://purl.org/dc/elements/1.1/"
   xmlns:cc="http://creativecommons.org/ns#"
   xmlns:rdf="http://www.w3.org/1999/02/22-rdf-syntax-ns#"
   xmlns:svg="http://www.w3.org/2000/svg"
   xmlns="http://www.w3.org/2000/svg"
   xmlns:xlink="http://www.w3.org/1999/xlink"
   xmlns:sodipodi="http://sodipodi.sourceforge.net/DTD/sodipodi-0.dtd"
   xmlns:inkscape="http://www.inkscape.org/namespaces/inkscape"
   id="svg2"
   version="1.1"
   inkscape:version="0.48.4 r9939"
   width="139"
   height="39"
   sodipodi:docname="logo.xcf">
  <metadata
     id="metadata8">
    <rdf:RDF>
      <cc:Work
         rdf:about="">
        <dc:format>image/svg+xml</dc:format>
        <dc:type
           rdf:resource="http://purl.org/dc/dcmitype/StillImage" />
        <dc:title></dc:title>
      </cc:Work>
    </rdf:RDF>
  </metadata>
  <defs
     id="defs6">
    <clipPath
       clipPathUnits="userSpaceOnUse"
       id="clipPath420">
      <path
         inkscape:connector-curvature="0"
         d="m 548.346,159.301 87.619,0 0,-87.6194 -87.619,0 0,87.6194 z"
         id="path422" />
    </clipPath>
    <clipPath
       clipPathUnits="userSpaceOnUse"
       id="clipPath424">
      <path
         inkscape:connector-curvature="0"
         d="m 635.965,115.49 c 0,-24.195 -19.613,-43.808 -43.809,-43.808 -24.197,0 -43.81,19.613 -43.81,43.808 0,24.198 19.613,43.811 43.81,43.811 24.196,0 43.809,-19.613 43.809,-43.811"
         id="path426" />
    </clipPath>
    <radialGradient
       fx="0"
       fy="0"
       cx="0"
       cy="0"
       r="1"
       gradientUnits="userSpaceOnUse"
       gradientTransform="matrix(77.751038,0,0,-77.751038,592.15527,115.49121)"
       spreadMethod="pad"
       id="radialGradient428">
      <stop
         style="stop-opacity:1;stop-color:#278dce"
         offset="0"
         id="stop430" />
      <stop
         style="stop-opacity:1;stop-color:#262262"
         offset="0.890045"
         id="stop432" />
      <stop
         style="stop-opacity:1;stop-color:#262262"
         offset="1"
         id="stop434" />
    </radialGradient>
    <clipPath
       clipPathUnits="userSpaceOnUse"
       id="clipPath404">
      <path
         inkscape:connector-curvature="0"
         d="m 541.088,166.559 102.137,0 0,-102.1371 -102.137,0 0,102.1371 z"
         id="path406" />
    </clipPath>
    <clipPath
       clipPathUnits="userSpaceOnUse"
       id="clipPath366">
      <path
         inkscape:connector-curvature="0"
         d="m 420.242,159.301 87.619,0 0,-87.6194 -87.619,0 0,87.6194 z"
         id="path368" />
    </clipPath>
    <clipPath
       clipPathUnits="userSpaceOnUse"
       id="clipPath370">
      <path
         inkscape:connector-curvature="0"
         d="m 507.861,115.49 c 0,-24.195 -19.615,-43.808 -43.812,-43.808 -24.195,0 -43.807,19.613 -43.807,43.808 0,24.198 19.612,43.811 43.807,43.811 24.197,0 43.812,-19.613 43.812,-43.811"
         id="path372" />
    </clipPath>
    <radialGradient
       fx="0"
       fy="0"
       cx="0"
       cy="0"
       r="1"
       gradientUnits="userSpaceOnUse"
       gradientTransform="matrix(77.751038,0,0,-77.751038,464.05176,115.49121)"
       spreadMethod="pad"
       id="radialGradient374">
      <stop
         style="stop-opacity:1;stop-color:#278dce"
         offset="0"
         id="stop376" />
      <stop
         style="stop-opacity:1;stop-color:#262262"
         offset="0.890045"
         id="stop378" />
      <stop
         style="stop-opacity:1;stop-color:#262262"
         offset="1"
         id="stop380" />
    </radialGradient>
    <clipPath
       clipPathUnits="userSpaceOnUse"
       id="clipPath350">
      <path
         inkscape:connector-curvature="0"
         d="m 412.98,166.559 102.137,0 0,-102.1371 -102.137,0 0,102.1371 z"
         id="path352" />
    </clipPath>
    <clipPath
       clipPathUnits="userSpaceOnUse"
       id="clipPath308">
      <path
         inkscape:connector-curvature="0"
         d="m 292.137,159.301 87.619,0 0,-87.6194 -87.619,0 0,87.6194 z"
         id="path310" />
    </clipPath>
    <clipPath
       clipPathUnits="userSpaceOnUse"
       id="clipPath312">
      <path
         inkscape:connector-curvature="0"
         d="m 379.756,115.49 c 0,-24.195 -19.615,-43.808 -43.811,-43.808 -24.195,0 -43.808,19.613 -43.808,43.808 0,24.198 19.613,43.811 43.808,43.811 24.196,0 43.811,-19.613 43.811,-43.811"
         id="path314" />
    </clipPath>
    <radialGradient
       fx="0"
       fy="0"
       cx="0"
       cy="0"
       r="1"
       gradientUnits="userSpaceOnUse"
       gradientTransform="matrix(77.751038,0,0,-77.751038,335.94629,115.49121)"
       spreadMethod="pad"
       id="radialGradient316">
      <stop
         style="stop-opacity:1;stop-color:#278dce"
         offset="0"
         id="stop318" />
      <stop
         style="stop-opacity:1;stop-color:#262262"
         offset="0.890045"
         id="stop320" />
      <stop
         style="stop-opacity:1;stop-color:#262262"
         offset="1"
         id="stop322" />
    </radialGradient>
    <clipPath
       clipPathUnits="userSpaceOnUse"
       id="clipPath292">
      <path
         inkscape:connector-curvature="0"
         d="m 284.876,166.559 102.138,0 0,-102.1371 -102.138,0 0,102.1371 z"
         id="path294" />
    </clipPath>
    <clipPath
       clipPathUnits="userSpaceOnUse"
       id="clipPath250">
      <path
         inkscape:connector-curvature="0"
         d="m 164.03,159.301 87.619,0 0,-87.6194 -87.619,0 0,87.6194 z"
         id="path252" />
    </clipPath>
    <clipPath
       clipPathUnits="userSpaceOnUse"
       id="clipPath254">
      <path
         inkscape:connector-curvature="0"
         d="m 251.649,115.49 c 0,-24.195 -19.612,-43.808 -43.808,-43.808 -24.198,0 -43.811,19.613 -43.811,43.808 0,24.198 19.613,43.811 43.811,43.811 24.196,0 43.808,-19.613 43.808,-43.811"
         id="path256" />
    </clipPath>
    <radialGradient
       fx="0"
       fy="0"
       cx="0"
       cy="0"
       r="1"
       gradientUnits="userSpaceOnUse"
       gradientTransform="matrix(77.75061,0,0,-77.750595,207.83984,115.49121)"
       spreadMethod="pad"
       id="radialGradient258">
      <stop
         style="stop-opacity:1;stop-color:#278dce"
         offset="0"
         id="stop260" />
      <stop
         style="stop-opacity:1;stop-color:#262262"
         offset="0.890045"
         id="stop262" />
      <stop
         style="stop-opacity:1;stop-color:#262262"
         offset="1"
         id="stop264" />
    </radialGradient>
    <clipPath
       clipPathUnits="userSpaceOnUse"
       id="clipPath234">
      <path
         inkscape:connector-curvature="0"
         d="m 156.77,166.559 102.139,0 0,-102.1371 -102.139,0 0,102.1371 z"
         id="path236" />
    </clipPath>
    <clipPath
       clipPathUnits="userSpaceOnUse"
       id="clipPath150">
      <path
         inkscape:connector-curvature="0"
         d="m 225.477,691.858 349.043,0 0,-351.682 -349.043,0 0,351.682 z"
         id="path152" />
    </clipPath>
    <clipPath
       clipPathUnits="userSpaceOnUse"
       id="clipPath154">
      <path
         inkscape:connector-curvature="0"
         d="m 574.52,568.543 -50.801,81.303 -75.793,-47.36 0,89.372 -95.859,0 0,-89.372 -75.789,47.36 -50.801,-81.303 84.073,-52.528 -84.073,-52.526 50.801,-81.303 75.789,47.356 0,-89.366 95.859,0 0,89.368 75.793,-47.358 50.799,81.303 -84.073,52.526 84.075,52.528 z"
         id="path156" />
    </clipPath>
    <radialGradient
       inkscape:collect="always"
       xlink:href="#radialGradient158"
       id="radialGradient3555"
       gradientUnits="userSpaceOnUse"
       gradientTransform="matrix(239.04001,0,0,-239.04001,399.99805,516.01709)"
       spreadMethod="pad"
       cx="0"
       cy="0"
       fx="0"
       fy="0"
       r="1" />
    <radialGradient
       fx="0"
       fy="0"
       cx="0"
       cy="0"
       r="1"
       gradientUnits="userSpaceOnUse"
       gradientTransform="matrix(239.04001,0,0,-239.04001,399.99805,516.01709)"
       spreadMethod="pad"
       id="radialGradient158">
      <stop
         style="stop-opacity:1;stop-color:#278dce"
         offset="0"
         id="stop160" />
      <stop
         style="stop-opacity:1;stop-color:#262262"
         offset="0.890045"
         id="stop162" />
      <stop
         style="stop-opacity:1;stop-color:#262262"
         offset="1"
         id="stop164" />
    </radialGradient>
    <clipPath
       clipPathUnits="userSpaceOnUse"
       id="clipPath134">
      <path
         inkscape:connector-curvature="0"
         d="m 213.187,700.777 373.62,0 0,-369.521 -373.62,0 0,369.521 z"
         id="path136" />
    </clipPath>
  </defs>
  <sodipodi:namedview
     pagecolor="#ffffff"
     bordercolor="#666666"
     borderopacity="1"
     objecttolerance="10"
     gridtolerance="10"
     guidetolerance="10"
     inkscape:pageopacity="0"
     inkscape:pageshadow="2"
     inkscape:window-width="1003"
     inkscape:window-height="480"
     id="namedview4"
     showgrid="false"
     inkscape:zoom="1.4142136"
     inkscape:cx="173.53543"
     inkscape:cy="1.1744046"
     inkscape:window-x="244"
     inkscape:window-y="65"
     inkscape:window-maximized="0"
     inkscape:current-layer="svg2" />
  <g
     inkscape:groupmode="layer"
     id="layer1"
     inkscape:label="capa" />
  <g
     id="g130"
     transform="matrix(0.0653165,0,0,-0.07035792,-12.255241,55.053101)">
    <g
       id="g132" />
    <g
       id="g138">
      <g
         clip-path="url(#clipPath134)"
         id="g140">
        <g
           transform="translate(586.8066,565.7188)"
           id="g142">
          <path
             d="m 0,0 -60.244,96.41 -69.719,-43.56 0,82.209 -113.693,0 0,-82.209 -69.716,43.56 -60.247,-96.41 79.537,-49.704 -79.534,-49.703 60.244,-96.409 69.716,43.561 0,-82.208 113.693,0 0,82.208 69.719,-43.561 60.242,96.409 -79.535,49.703 L 0,0 z"
             style="fill:#b8e0f1;fill-opacity:1;fill-rule:nonzero;stroke:none"
             id="path144"
             inkscape:connector-curvature="0" />
        </g>
      </g>
    </g>
  </g>
  <g
     id="g146"
     transform="matrix(0.0653165,0,0,-0.07035792,-12.255241,55.053101)">
    <g
       id="g148" />
    <g
       id="g166">
      <g
         clip-path="url(#clipPath150)"
         id="g168">
        <g
           id="g170">
          <g
             clip-path="url(#clipPath154)"
             id="g172">
            <g
               id="g174">
              <g
                 id="g176">
                <path
                   d="m 574.52,568.543 -50.801,81.303 -75.793,-47.36 0,89.372 -95.859,0 0,-89.372 -75.789,47.36 -50.801,-81.303 84.073,-52.528 -84.073,-52.526 50.801,-81.303 75.789,47.356 0,-89.366 95.859,0 0,89.368 75.793,-47.358 50.799,81.303 -84.073,52.526 84.075,52.528 z"
                   style="fill:url(#radialGradient3555);stroke:none"
                   id="path178"
                   inkscape:connector-curvature="0" />
              </g>
            </g>
          </g>
        </g>
      </g>
    </g>
  </g>
  <g
     id="g180"
     transform="matrix(0.0653165,0,0,-0.07035792,14.764737,15.3105)">
    <path
       d="m 0,0 c -17.202,3.277 -27.478,3.92 -33.898,6.715 -9.116,3.956 -0.984,10.447 12.767,14.358 -0.021,4.992 -0.06,9.726 -0.095,14.17 -19.347,-4.827 -50.871,-23.731 -22.473,-37.936 5.556,-2.784 15.226,-5.43 32.924,-7.192 21.357,-2.128 31.73,-14.929 17.951,-26.31 -2.34,-1.94 -7.922,-4.271 -14.457,-6.86 -0.043,-3.784 -0.088,-7.59 -0.106,-11.415 7.864,2.858 16.02,5.896 22.137,10.136 C 33.85,-31.092 29.625,-5.623 0,0 m -24.906,-154.552 c 0.431,5.859 2.628,9.884 5.526,12.939 -0.061,2.868 -0.095,5.813 -0.155,8.81 -5.932,-5.055 -10.633,-11.12 -11.017,-18.119 -0.968,-17.891 14.004,-27.693 25.601,-31.269 -14.387,7.949 -20.721,17.027 -19.955,27.639 m 5.129,64.745 c -14.906,9.618 -16.242,17.699 -11.486,23.319 2.333,2.738 6.189,4.981 10.804,7.017 -0.029,3.715 -0.063,7.438 -0.105,11.145 -7.122,-2.976 -13.736,-6.131 -17.321,-9.345 -14.93,-13.359 -2.654,-29.366 9.887,-37.531 21.924,-14.263 26.848,-22.516 19.756,-29.204 -0.035,-3.186 -0.09,-6.33 -0.151,-9.401 0.086,0.048 0.155,0.098 0.245,0.133 10.166,6.205 25.158,20.099 -11.629,43.867 M 16.254,26.058 c -1.43,0 -2.588,1.157 -2.588,2.579 0,1.43 1.158,2.588 2.588,2.588 1.434,0 2.586,-1.158 2.586,-2.588 0,-1.422 -1.152,-2.579 -2.586,-2.579 m 7.43,7.945 C 16.41,38.67 3.92,38.695 -6.666,37.592 -6.697,33.302 -6.734,28.7 -6.746,23.837 c 4.115,0.453 8.389,0.634 12.586,0.455 0,-7.332 9.558,-9.229 17.762,-8.827 11.543,0.55 12.099,10.858 0.082,18.538"
       style="fill:#fffae9;fill-opacity:1;fill-rule:nonzero;stroke:none"
       id="path182"
       inkscape:connector-curvature="0" />
  </g>
  <g
     id="g184"
     transform="matrix(0.0653165,0,0,-0.07035792,13.601387,16.167887)">
    <path
       d="m 0,0 c 0.205,-23.908 0.443,-50.34 0.751,-75.723 2.189,-1.462 4.266,-2.899 6.177,-4.351 0.324,26.401 0.58,54.152 0.78,79.201 C 7.374,-0.834 7.065,-0.8 6.745,-0.761 4.403,-0.534 2.16,-0.277 0,0 m 3.86,94.131 c -5.34,0 -9.671,-4.328 -9.671,-9.672 0,-3.772 2.16,-7.023 5.302,-8.626 0.073,-11.244 0.194,-32.142 0.378,-57.487 0.848,-0.139 1.698,-0.275 2.575,-0.417 1.688,-0.268 3.486,-0.546 5.404,-0.86 0.18,25.909 0.303,47.325 0.377,58.764 3.141,1.603 5.301,4.853 5.301,8.626 0,5.344 -4.328,9.672 -9.666,9.672 m 0,-285.435 c 0.524,0 0.989,7.877 1.42,20.963 -0.982,0.472 -1.957,0.97 -2.877,1.492 0.422,-13.983 0.905,-22.455 1.457,-22.455 m -2.873,96.429 c 0.304,-24.093 0.675,-46.334 1.113,-63.363 1.016,-1.076 2.167,-2.142 3.442,-3.193 0.439,16.144 0.81,37.562 1.123,61.057 -1.389,1.66 -3.285,3.503 -5.678,5.499"
       style="fill:#fffae9;fill-opacity:1;fill-rule:nonzero;stroke:none"
       id="path186"
       inkscape:connector-curvature="0" />
  </g>
  <g
     id="g214"
     transform="matrix(0.22344335,0,0,-0.2649559,40.333787,4.6938123)">
    <path
       d="m 0,0 c -31.469,0 -57.071,-25.6 -57.071,-57.068 0,-31.467 25.602,-57.069 57.071,-57.069 31.468,0 57.068,25.602 57.068,57.069 C 57.068,-25.6 31.468,0 0,0"
       style="fill:#fffae9;fill-opacity:1;fill-rule:nonzero;stroke:none"
       id="path216"
       inkscape:connector-curvature="0" />
  </g>
  <g
     id="g218"
     transform="matrix(0.22344335,0,0,-0.2649559,68.95789,4.6938123)">
    <path
       d="m 0,0 c -31.468,0 -57.069,-25.6 -57.069,-57.068 0,-31.467 25.601,-57.069 57.069,-57.069 31.468,0 57.068,25.602 57.068,57.069 C 57.068,-25.6 31.468,0 0,0"
       style="fill:#fffae9;fill-opacity:1;fill-rule:nonzero;stroke:none"
       id="path220"
       inkscape:connector-curvature="0" />
  </g>
  <g
     id="g222"
     transform="matrix(0.22344335,0,0,-0.2649559,97.581763,4.6938123)">
    <path
       d="m 0,0 c -31.467,0 -57.068,-25.6 -57.068,-57.068 0,-31.467 25.601,-57.069 57.068,-57.069 31.469,0 57.068,25.602 57.068,57.069 C 57.068,-25.6 31.469,0 0,0"
       style="fill:#fffae9;fill-opacity:1;fill-rule:nonzero;stroke:none"
       id="path224"
       inkscape:connector-curvature="0" />
  </g>
  <g
     id="g226"
     transform="matrix(0.22344335,0,0,-0.2649559,126.20654,4.6938123)">
    <path
       d="m 0,0 c -31.467,0 -57.068,-25.6 -57.068,-57.068 0,-31.467 25.601,-57.069 57.068,-57.069 31.469,0 57.068,25.602 57.068,57.069 C 57.068,-25.6 31.469,0 0,0"
       style="fill:#fffae9;fill-opacity:1;fill-rule:nonzero;stroke:none"
       id="path228"
       inkscape:connector-curvature="0" />
  </g>
  <g
     id="g230"
     transform="matrix(0.22344335,0,0,-0.2649559,-6.1068619,50.414231)">
    <g
       id="g232" />
    <g
       id="g238">
      <g
         clip-path="url(#clipPath234)"
         id="g240">
        <g
           transform="translate(258.9092,115.4902)"
           id="g242">
          <path
             d="m 0,0 c 0,-28.205 -22.865,-51.068 -51.068,-51.068 -28.206,0 -51.071,22.863 -51.071,51.068 0,28.205 22.865,51.068 51.071,51.068 C -22.865,51.068 0,28.205 0,0"
             style="fill:#b8e0f1;fill-opacity:1;fill-rule:nonzero;stroke:none"
             id="path244"
             inkscape:connector-curvature="0" />
        </g>
      </g>
    </g>
  </g>
  <g
     id="g246"
     transform="matrix(0.22344335,0,0,-0.2649559,-6.1068619,50.414231)">
    <g
       id="g248" />
    <g
       id="g266">
      <g
         clip-path="url(#clipPath250)"
         id="g268">
        <g
           id="g270">
          <g
             clip-path="url(#clipPath254)"
             id="g272">
            <g
               id="g274">
              <g
                 id="g276">
                <path
                   d="m 251.649,115.49 c 0,-24.195 -19.612,-43.808 -43.808,-43.808 -24.198,0 -43.811,19.613 -43.811,43.808 0,24.198 19.613,43.811 43.811,43.811 24.196,0 43.808,-19.613 43.808,-43.811"
                   style="fill:url(#radialGradient258);stroke:none"
                   id="path278"
                   inkscape:connector-curvature="0" />
              </g>
            </g>
          </g>
        </g>
      </g>
    </g>
  </g>
  <g
     id="g280"
     transform="matrix(0.22344335,0,0,-0.2649559,44.899115,14.826309)">
    <path
       d="m 0,0 c -5.323,5.322 -13.982,5.322 -19.303,0.002 l -21.56,-21.563 c -5.324,-5.32 -5.321,-13.98 0,-19.3 5.323,-5.323 13.98,-5.323 19.303,-0.002 L 0,-19.301 C 5.32,-13.98 5.32,-5.322 0,0"
       style="fill:#fffae9;fill-opacity:1;fill-rule:nonzero;stroke:none"
       id="path282"
       inkscape:connector-curvature="0" />
  </g>
  <g
     id="g284"
     transform="matrix(0.22344335,0,0,-0.2649559,44.549,15.241336)">
    <path
       d="M 0,0 C -4.465,4.465 -11.704,4.465 -16.169,0.002 L -27.073,-10.902 -10.904,-27.072 0,-16.168 C 4.465,-11.705 4.465,-4.465 0,0"
       style="fill:#ecb059;fill-opacity:1;fill-rule:nonzero;stroke:none"
       id="path286"
       inkscape:connector-curvature="0" />
  </g>
  <g
     id="g288"
     transform="matrix(0.22344335,0,0,-0.2649559,-6.1068619,50.414231)">
    <g
       id="g290" />
    <g
       id="g296">
      <g
         clip-path="url(#clipPath292)"
         id="g298">
        <g
           transform="translate(387.0137,115.4902)"
           id="g300">
          <path
             d="m 0,0 c 0,-28.205 -22.862,-51.068 -51.068,-51.068 -28.204,0 -51.069,22.863 -51.069,51.068 0,28.205 22.865,51.068 51.069,51.068 C -22.862,51.068 0,28.205 0,0"
             style="fill:#b8e0f1;fill-opacity:1;fill-rule:nonzero;stroke:none"
             id="path302"
             inkscape:connector-curvature="0" />
        </g>
      </g>
    </g>
  </g>
  <g
     id="g304"
     transform="matrix(0.22344335,0,0,-0.2649559,-6.1068619,50.414231)">
    <g
       id="g306" />
    <g
       id="g324">
      <g
         clip-path="url(#clipPath308)"
         id="g326">
        <g
           id="g328">
          <g
             clip-path="url(#clipPath312)"
             id="g330">
            <g
               id="g332">
              <g
                 id="g334">
                <path
                   d="m 379.756,115.49 c 0,-24.195 -19.615,-43.808 -43.811,-43.808 -24.195,0 -43.808,19.613 -43.808,43.808 0,24.198 19.613,43.811 43.808,43.811 24.196,0 43.811,-19.613 43.811,-43.811"
                   style="fill:url(#radialGradient316);stroke:none"
                   id="path336"
                   inkscape:connector-curvature="0" />
              </g>
            </g>
          </g>
        </g>
      </g>
    </g>
  </g>
  <g
     id="g338"
     transform="matrix(0.22344335,0,0,-0.2649559,74.754771,19.135471)">
    <path
       d="m 0,0 -6.271,6.271 7.297,7.297 1.877,-1.879 c 0.748,-0.746 1.964,-0.746 2.712,0.004 0.748,0.748 0.748,1.963 0,2.709 L -6.431,26.449 c -0.748,0.75 -1.963,0.75 -2.711,0 -0.751,-0.748 -0.748,-1.965 0,-2.713 l 1.874,-1.875 -7.297,-7.297 -6.268,6.27 c -0.751,0.748 -1.966,0.75 -2.714,0 -0.751,-0.752 -0.748,-1.965 0,-2.711 l 3.525,-3.525 -23.109,-23.114 c -2.158,-2.158 -2.158,-5.656 0,-7.812 l 2.013,-2.016 -9.446,-9.449 c -0.539,-0.533 -0.536,-1.402 0,-1.936 0.535,-0.537 1.404,-0.537 1.937,0 l 9.449,9.446 2.013,-2.014 c 2.158,-2.158 5.657,-2.158 7.814,0 l 23.112,23.111 3.525,-3.529 c 0.748,-0.744 1.964,-0.748 2.712,0.004 C 0.748,-1.963 0.748,-0.748 0,0"
       style="fill:#fffae9;fill-opacity:1;fill-rule:nonzero;stroke:none"
       id="path340"
       inkscape:connector-curvature="0" />
  </g>
  <g
     id="g342"
     transform="matrix(0.22344335,0,0,-0.2649559,68.015358,24.557739)">
    <path
       d="m 0,0 c -1.743,-1.74 -4.567,-1.74 -6.313,0.002 l -4.822,4.822 c -1.745,1.746 -1.742,4.572 -0.002,6.315 L -0.543,21.732 10.594,10.596 0,0 z"
       style="fill:#ecb059;fill-opacity:1;fill-rule:nonzero;stroke:none"
       id="path344"
       inkscape:connector-curvature="0" />
  </g>
  <g
     id="g346"
     transform="matrix(0.22344335,0,0,-0.2649559,-6.1068619,50.414231)">
    <g
       id="g348" />
    <g
       id="g354">
      <g
         clip-path="url(#clipPath350)"
         id="g356">
        <g
           transform="translate(515.1172,115.4902)"
           id="g358">
          <path
             d="m 0,0 c 0,-28.205 -22.861,-51.068 -51.068,-51.068 -28.203,0 -51.069,22.863 -51.069,51.068 0,28.205 22.866,51.068 51.069,51.068 C -22.861,51.068 0,28.205 0,0"
             style="fill:#b8e0f1;fill-opacity:1;fill-rule:nonzero;stroke:none"
             id="path360"
             inkscape:connector-curvature="0" />
        </g>
      </g>
    </g>
  </g>
  <g
     id="g362"
     transform="matrix(0.22344335,0,0,-0.2649559,-6.1068619,50.414231)">
    <g
       id="g364" />
    <g
       id="g382">
      <g
         clip-path="url(#clipPath366)"
         id="g384">
        <g
           id="g386">
          <g
             clip-path="url(#clipPath370)"
             id="g388">
            <g
               id="g390">
              <g
                 id="g392">
                <path
                   d="m 507.861,115.49 c 0,-24.195 -19.615,-43.808 -43.812,-43.808 -24.195,0 -43.807,19.613 -43.807,43.808 0,24.198 19.612,43.811 43.807,43.811 24.197,0 43.812,-19.613 43.812,-43.811"
                   style="fill:url(#radialGradient374);stroke:none"
                   id="path394"
                   inkscape:connector-curvature="0" />
              </g>
            </g>
          </g>
        </g>
      </g>
    </g>
  </g>
  <g
     id="g396"
     transform="matrix(0.22344335,0,0,-0.2649559,98.433643,28.254697)">
    <path
       d="m 0,0 -0.029,0 c -0.557,0.012 -1.037,0.395 -1.168,0.936 l -13.561,54.222 -7.336,-23.402 c -0.16,-0.516 -0.635,-0.867 -1.176,-0.867 l -16.267,0 c -0.684,0 -1.236,0.552 -1.236,1.236 0,0.682 0.552,1.234 1.236,1.234 l 15.359,0 8.375,26.727 c 0.166,0.529 0.662,0.859 1.217,0.867 0.553,-0.015 1.029,-0.4 1.162,-0.937 L 0.105,5.916 11.992,45.859 c 0.147,0.498 0.588,0.848 1.106,0.883 0.533,0.029 0.998,-0.258 1.207,-0.73 l 5.646,-12.653 11.967,0 c 0.682,0 1.236,-0.552 1.236,-1.234 0,-0.684 -0.554,-1.236 -1.236,-1.236 l -12.768,0 c -0.488,0 -0.929,0.287 -1.129,0.73 L 13.41,41.957 1.184,0.883 C 1.029,0.359 0.545,0 0,0"
       style="fill:#fffae9;fill-opacity:1;fill-rule:nonzero;stroke:none"
       id="path398"
       inkscape:connector-curvature="0" />
  </g>
  <g
     id="g400"
     transform="matrix(0.22344335,0,0,-0.2649559,-6.1068619,50.414231)">
    <g
       id="g402" />
    <g
       id="g408">
      <g
         clip-path="url(#clipPath404)"
         id="g410">
        <g
           transform="translate(643.2246,115.4902)"
           id="g412">
          <path
             d="m 0,0 c 0,-28.205 -22.865,-51.068 -51.068,-51.068 -28.205,0 -51.069,22.863 -51.069,51.068 0,28.205 22.864,51.068 51.069,51.068 C -22.865,51.068 0,28.205 0,0"
             style="fill:#b8e0f1;fill-opacity:1;fill-rule:nonzero;stroke:none"
             id="path414"
             inkscape:connector-curvature="0" />
        </g>
      </g>
    </g>
  </g>
  <g
     id="g416"
     transform="matrix(0.22344335,0,0,-0.2649559,-6.1068619,50.414231)">
    <g
       id="g418" />
    <g
       id="g436">
      <g
         clip-path="url(#clipPath420)"
         id="g438">
        <g
           id="g440">
          <g
             clip-path="url(#clipPath424)"
             id="g442">
            <g
               id="g444">
              <g
                 id="g446">
                <path
                   d="m 635.965,115.49 c 0,-24.195 -19.613,-43.808 -43.809,-43.808 -24.197,0 -43.81,19.613 -43.81,43.808 0,24.198 19.613,43.811 43.81,43.811 24.196,0 43.809,-19.613 43.809,-43.811"
                   style="fill:url(#radialGradient428);stroke:none"
                   id="path448"
                   inkscape:connector-curvature="0" />
              </g>
            </g>
          </g>
        </g>
      </g>
    </g>
  </g>
  <g
     id="g450"
     transform="matrix(0.22344335,0,0,-0.2649559,124.78208,13.066313)">
    <path
       d="m 0,0 12.754,0 c 1.51,0 2.725,-1.225 2.725,-2.732 0,-1.506 -1.215,-2.727 -2.725,-2.727 L 0,-5.459 c -1.51,0 -2.73,1.221 -2.73,2.727 C -2.73,-1.225 -1.51,0 0,0 m 29.201,-5.938 -9.262,0 -0.039,0 0,3.206 c 0,3.945 -3.207,7.152 -7.146,7.152 L 0,4.42 c -3.943,0 -7.152,-3.207 -7.152,-7.152 l 0,-3.206 -9.301,0 c -3.17,0 -5.742,-2.574 -5.742,-5.748 l 0,-32.009 c 0,-3.172 2.572,-5.744 5.742,-5.744 l 45.654,0 c 3.176,0 5.746,2.572 5.746,5.744 l 0,32.009 c 0,3.174 -2.57,5.748 -5.746,5.748"
       style="fill:#fffae9;fill-opacity:1;fill-rule:nonzero;stroke:none"
       id="path452"
       inkscape:connector-curvature="0" />
  </g>
  <g
     id="g454"
     transform="matrix(0.22344335,0,0,-0.2649559,129.12308,18.917069)">
    <path
       d="m 0,0 -7.094,0 0,7.096 c 0,0.824 -0.668,1.49 -1.492,1.49 l -8.937,0 c -0.825,0 -1.491,-0.666 -1.491,-1.49 l 0,-7.096 -7.093,0 C -26.93,0 -27.6,-0.666 -27.6,-1.49 l 0,-8.938 c 0,-0.824 0.67,-1.492 1.493,-1.492 l 7.093,0 0,-7.094 c 0,-0.822 0.666,-1.49 1.491,-1.49 l 8.937,0 c 0.824,0 1.492,0.668 1.492,1.49 l 0,7.094 7.094,0 c 0.824,0 1.492,0.668 1.492,1.492 l 0,8.938 C 1.492,-0.666 0.824,0 0,0"
       style="fill:#ecb059;fill-opacity:1;fill-rule:nonzero;stroke:none"
       id="path456"
       inkscape:connector-curvature="0" />
  </g>
</svg>
